# xmcd
#
# Track frame offsets:
# 150
# 16405
# 30553
# 45380
# 56989
# 71569
# 86330
# 102352
# 114695
# 128701
# 140221
# 154585
# 167258
# 179701
# 193630
# 207079
# 220392
# 239956
# 251052
# 271153
# 295642
# 310919
#
# Disc length: 4403 seconds
#
# Revision: 0
# Processed by: cddbd v1.4PL0 Copyright (c) Steve Scherf et al.
# Submitted via: Audion 3.0.2 (http://www.panic.com/audion/)
#
DISCID=48113116
DTITLE=hdsh - s
DYEAR=1900
DGENRE=
TTITLE0=h
TTITLE1=h
TTITLE2=h
TTITLE3=h
TTITLE4=h
TTITLE5=h
TTITLE6=h
TTITLE7=h
TTITLE8=h
TTITLE9=h
TTITLE10=h
TTITLE11=h
TTITLE12=h
TTITLE13=h
TTITLE14=h
TTITLE15=h
TTITLE16=h
TTITLE17=h
TTITLE18=h
TTITLE19=h
TTITLE20=h
TTITLE21=h
EXTD=
EXTT0=
EXTT1=
EXTT2=
EXTT3=
EXTT4=
EXTT5=
EXTT6=
EXTT7=
EXTT8=
EXTT9=
EXTT10=
EXTT11=
EXTT12=
EXTT13=
EXTT14=
EXTT15=
EXTT16=
EXTT17=
EXTT18=
EXTT19=
EXTT20=
EXTT21=
PLAYORDER=
